<svg xmlns="http://www.w3.org/2000/svg" width="549" height="484" viewBox="0 0 549 484" fill="none"><path opacity="0.298" d="M335.68 205.91C358.533 205.91 384.255 212.29 384.255 220.159C384.255 228.029 342.727 241.842 324.885 241.842C307.044 241.842 294.301 228.029 294.301 220.159C294.301 212.29 312.827 205.91 335.68 205.91Z" fill="url(#paint0_linear_20213_57575)"></path><g filter="url(#filter0_dd_20213_57575)"><path d="M364.455 178.442C364.455 201.56 327.732 226.191 322.097 248.175C316.439 226.191 279.738 201.56 279.738 178.442C279.738 155.324 298.703 136.584 322.097 136.584C345.491 136.584 364.455 155.324 364.455 178.442Z" fill="white"></path><path d="M362.955 178.442C362.955 183.833 360.81 189.431 357.342 195.229C353.878 201.021 349.181 206.874 344.24 212.77C343.236 213.968 342.222 215.168 341.207 216.368C337.252 221.047 333.284 225.742 329.884 230.368C326.672 234.737 323.901 239.13 322.095 243.499C320.285 239.13 317.513 234.737 314.3 230.367C310.903 225.747 306.941 221.058 302.991 216.385C301.972 215.178 300.953 213.973 299.946 212.77C295.006 206.874 290.311 201.021 286.849 195.229C283.383 189.431 281.238 183.833 281.238 178.442C281.238 156.169 299.514 138.084 322.097 138.084C344.679 138.084 362.955 156.169 362.955 178.442Z" stroke="white" stroke-width="3"></path></g><circle cx="321.544" cy="178.045" r="32.3551" stroke="#D2DCE4" stroke-width="2"></circle><mask id="mask0_20213_57575" style="mask-type:alpha" maskUnits="userSpaceOnUse" x="290" y="146" width="63" height="64"><circle cx="321.544" cy="178.045" r="31.3551" fill="#C4C4C4"></circle></mask><g mask="url(#mask0_20213_57575)"><path fill-rule="evenodd" clip-rule="evenodd" d="M279.736 146.69H363.351V209.4H279.736V146.69Z" fill="white"></path><path fill-rule="evenodd" clip-rule="evenodd" d="M279.736 146.69H307.607V209.4H279.736V146.69Z" fill="#009246"></path><path fill-rule="evenodd" clip-rule="evenodd" d="M335.478 146.69H363.349V209.4H335.478V146.69Z" fill="#CE2B37"></path></g><path opacity="0.298" d="M365.884 384.692C384.432 384.692 405.31 389.87 405.31 396.257C405.31 402.645 371.603 413.856 357.122 413.856C342.641 413.856 332.298 402.645 332.298 396.257C332.298 389.87 347.335 384.692 365.884 384.692Z" fill="url(#paint1_linear_20213_57575)"></path><g filter="url(#filter1_dd_20213_57575)"><path d="M389.239 362.397C389.239 381.16 359.432 401.153 354.858 418.997C350.266 401.153 320.478 381.16 320.478 362.397C320.478 343.633 335.87 328.422 354.858 328.422C373.846 328.422 389.239 343.633 389.239 362.397Z" fill="white"></path><path d="M387.739 362.397C387.739 366.699 386.026 371.191 383.223 375.877C380.424 380.557 376.625 385.293 372.614 390.078C371.801 391.048 370.98 392.02 370.157 392.994C366.946 396.792 363.717 400.613 360.951 404.375C358.489 407.725 356.335 411.105 354.857 414.48C353.376 411.105 351.22 407.725 348.757 404.375C345.994 400.617 342.77 396.801 339.564 393.007C338.737 392.029 337.912 391.052 337.096 390.078C333.086 385.293 329.289 380.557 326.491 375.878C323.69 371.191 321.978 366.699 321.978 362.397C321.978 344.478 336.682 329.922 354.858 329.922C373.035 329.922 387.739 344.478 387.739 362.397Z" stroke="white" stroke-width="3"></path></g><circle cx="354.409" cy="362.075" r="26.4497" stroke="#D2DCE4" stroke-width="2"></circle><mask id="mask1_20213_57575" style="mask-type:alpha" maskUnits="userSpaceOnUse" x="328" y="336" width="52" height="52"><circle cx="354.409" cy="362.075" r="25.4497" fill="#C4C4C4"></circle></mask><g mask="url(#mask1_20213_57575)"><path fill-rule="evenodd" clip-rule="evenodd" d="M320.477 336.625H388.343V387.525H320.477V336.625Z" fill="white"></path><path fill-rule="evenodd" clip-rule="evenodd" d="M320.477 336.625H343.098V387.525H320.477V336.625Z" fill="#009246"></path><path fill-rule="evenodd" clip-rule="evenodd" d="M365.72 336.625H388.342V387.525H365.72V336.625Z" fill="#CE2B37"></path><path d="M388.342 336.656H320.477V387.979H388.342V336.656Z" fill="#FF9933"></path><path d="M388.342 352.774H320.477V371.861H388.342V352.774Z" fill="white"></path><path d="M388.342 371.861H320.477V387.979H388.342V371.861Z" fill="#128807"></path><path d="M354.305 356.273C351.018 356.273 348.261 358.924 348.261 362.318C348.261 365.605 350.912 368.362 354.305 368.362C357.592 368.362 360.349 365.711 360.349 362.318C360.349 359.03 357.592 356.273 354.305 356.273ZM359.501 363.272C359.501 363.378 359.395 363.59 359.395 363.696L356.426 362.742L355.365 362.636C355.365 362.53 355.365 362.53 355.365 362.424L356.426 362.53L359.607 362.318L356.426 362.106L355.365 362.212C355.365 362.106 355.365 362.106 355.365 362L356.426 361.894L359.395 360.939C359.395 361.045 359.501 361.257 359.501 361.363C359.395 361.363 359.289 361.469 359.289 361.681C359.289 361.788 359.395 361.894 359.501 361.894C359.501 362 359.501 362.212 359.501 362.318C359.501 362.424 359.501 362.636 359.501 362.742C359.395 362.742 359.289 362.848 359.289 362.954C359.289 363.06 359.395 363.272 359.501 363.272ZM359.077 364.545C358.971 364.651 358.971 364.757 358.865 364.969L356.214 363.272L355.259 362.848C355.259 362.848 355.259 362.742 355.365 362.742L356.32 363.166L359.395 363.802C359.395 363.908 359.289 364.12 359.289 364.226C359.183 364.226 358.971 364.226 358.971 364.332C358.865 364.332 358.971 364.545 359.077 364.545ZM356.214 366.984C356.108 366.984 356.002 367.196 356.108 367.302C356.002 367.302 355.79 367.408 355.684 367.408L355.047 364.332L354.623 363.378C354.729 363.378 354.729 363.378 354.729 363.272L355.153 364.226L356.85 366.877C356.744 366.984 356.638 366.984 356.426 367.09C356.532 366.984 356.32 366.877 356.214 366.984ZM356.214 357.652C356.32 357.652 356.532 357.652 356.532 357.546C356.638 357.652 356.744 357.652 356.956 357.758L355.259 360.409L354.835 361.363C354.835 361.363 354.729 361.363 354.729 361.257L355.153 360.303L355.79 357.228C355.896 357.228 356.108 357.334 356.214 357.334C356.002 357.44 356.108 357.652 356.214 357.652ZM359.289 360.515C359.289 360.621 359.395 360.833 359.395 360.939L356.32 361.575L355.365 362C355.365 361.894 355.365 361.894 355.259 361.894L356.214 361.469L358.865 359.773C358.971 359.879 358.971 359.985 359.077 360.197C358.971 360.303 358.865 360.409 358.971 360.515C358.971 360.515 359.183 360.621 359.289 360.515ZM358.335 358.924C358.229 359.03 358.229 359.137 358.335 359.243C358.441 359.349 358.547 359.349 358.653 359.243C358.759 359.349 358.759 359.455 358.865 359.667L356.002 361.045L355.153 361.681L355.047 361.575L355.896 360.939L358.016 358.606L355.684 360.727L355.047 361.575L354.941 361.469L355.578 360.621L356.956 357.758C357.062 357.864 357.168 357.864 357.38 357.97C357.274 358.076 357.274 358.288 357.38 358.288C357.486 358.394 357.592 358.394 357.698 358.288C357.804 358.394 357.91 358.5 358.016 358.606C358.122 358.712 358.229 358.818 358.335 358.924ZM354.729 357.122C354.729 357.228 354.835 357.334 354.941 357.334C355.047 357.334 355.153 357.228 355.259 357.122C355.365 357.122 355.578 357.228 355.684 357.228L354.729 360.197L354.623 361.257C354.517 361.257 354.517 361.257 354.411 361.257L354.517 360.197L354.305 357.016L354.093 360.197L354.199 361.257C354.093 361.257 354.093 361.257 353.987 361.257L353.881 360.197L352.927 357.228C353.033 357.228 353.245 357.122 353.351 357.122C353.351 357.228 353.457 357.334 353.669 357.334C353.775 357.334 353.881 357.228 353.881 357.122C353.987 357.122 354.199 357.122 354.305 357.122C354.411 357.122 354.623 357.016 354.729 357.122ZM352.396 366.984C352.29 366.984 352.078 366.984 352.078 367.09C351.972 366.984 351.866 366.984 351.654 366.877L353.351 364.226L353.775 363.272C353.775 363.272 353.881 363.272 353.881 363.378L353.457 364.332L352.82 367.408C352.714 367.408 352.502 367.302 352.396 367.302C352.608 367.196 352.502 366.984 352.396 366.984ZM349.321 364.12C349.321 364.014 349.215 363.802 349.215 363.696L352.29 363.06L353.245 362.636C353.245 362.742 353.245 362.742 353.351 362.742L352.396 363.166L349.745 364.863C349.639 364.757 349.639 364.651 349.533 364.439C349.639 364.332 349.745 364.226 349.639 364.12C349.639 364.12 349.427 364.014 349.321 364.12ZM349.109 362.742C349.109 362.636 349.109 362.424 349.109 362.318C349.109 362.212 349.109 362 349.109 361.894C349.215 361.894 349.321 361.788 349.321 361.681C349.321 361.575 349.215 361.469 349.109 361.363C349.109 361.257 349.215 361.045 349.215 360.939L352.184 361.894L353.245 362C353.245 362.106 353.245 362.106 353.245 362.212L352.184 362.106L349.003 362.318L352.184 362.53L353.245 362.424C353.245 362.53 353.245 362.53 353.245 362.636L352.184 362.742L349.215 363.696C349.215 363.59 349.109 363.378 349.109 363.272C349.215 363.272 349.321 363.166 349.321 362.954C349.321 362.848 349.215 362.742 349.109 362.742ZM349.533 360.091C349.639 359.985 349.639 359.879 349.745 359.667L352.396 361.363L353.351 361.788C353.351 361.788 353.351 361.894 353.245 361.894L352.29 361.469L349.215 360.833C349.215 360.727 349.321 360.515 349.321 360.409C349.427 360.409 349.639 360.409 349.639 360.303C349.745 360.303 349.639 360.091 349.533 360.091ZM353.881 361.363L353.457 360.409L351.76 357.758C351.866 357.652 351.972 357.652 352.184 357.546C352.29 357.652 352.396 357.758 352.502 357.652C352.608 357.652 352.714 357.44 352.608 357.334C352.714 357.334 352.927 357.228 353.033 357.228L353.669 360.303L354.093 361.257C353.881 361.363 353.881 361.363 353.881 361.363ZM350.912 358.288C351.018 358.394 351.124 358.394 351.23 358.288C351.336 358.182 351.336 358.076 351.23 357.97C351.336 357.864 351.442 357.864 351.654 357.758L353.033 360.621L353.669 361.469L353.563 361.575L352.927 360.727L350.594 358.606L352.714 360.939L353.563 361.575L353.457 361.681L352.608 361.045L349.745 359.667C349.851 359.561 349.851 359.455 349.957 359.243C350.063 359.349 350.276 359.349 350.276 359.243C350.382 359.137 350.382 359.03 350.276 358.924C350.382 358.818 350.488 358.712 350.594 358.606C350.7 358.5 350.806 358.394 350.912 358.288ZM350.276 365.711C350.382 365.605 350.382 365.499 350.276 365.393C350.169 365.287 350.063 365.287 349.957 365.393C349.851 365.287 349.851 365.181 349.745 364.969L352.608 363.59L353.457 362.954L353.563 363.06L352.714 363.696L350.594 366.029L352.927 363.908L353.563 363.06L353.669 363.166L353.033 364.014L351.654 366.877C351.548 366.771 351.442 366.771 351.23 366.665C351.336 366.559 351.336 366.347 351.23 366.347C351.124 366.241 351.018 366.241 350.912 366.347C350.806 366.241 350.7 366.135 350.594 366.029C350.488 365.923 350.382 365.817 350.276 365.711ZM353.881 367.514C353.881 367.408 353.775 367.302 353.669 367.302C353.563 367.302 353.457 367.408 353.351 367.514C353.245 367.514 353.033 367.408 352.927 367.408L353.881 364.439L353.987 363.378C354.093 363.378 354.093 363.378 354.199 363.378L354.093 364.439L354.305 367.62L354.517 364.439L354.411 363.378C354.517 363.378 354.517 363.378 354.623 363.378L354.729 364.439L355.684 367.408C355.578 367.408 355.365 367.514 355.259 367.514C355.259 367.408 355.153 367.302 354.941 367.302C354.835 367.302 354.729 367.408 354.729 367.514C354.623 367.514 354.411 367.514 354.305 367.514C354.199 367.514 353.987 367.62 353.881 367.514ZM357.698 366.347C357.592 366.241 357.486 366.241 357.38 366.347C357.274 366.453 357.274 366.559 357.38 366.665C357.274 366.771 357.168 366.771 356.956 366.877L355.578 364.014L354.941 363.166L355.047 363.06L355.684 363.908L358.016 366.029L355.896 363.696L355.047 363.06L355.153 362.954L356.002 363.59L358.865 364.969C358.759 365.075 358.759 365.181 358.653 365.393C358.547 365.287 358.335 365.287 358.335 365.393C358.229 365.499 358.229 365.605 358.335 365.711C358.229 365.817 358.122 365.923 358.016 366.029C357.91 366.135 357.804 366.241 357.698 366.347Z" fill="#000088"></path></g><path opacity="0.298" d="M176.968 129.516C195.426 129.516 216.201 134.669 216.201 141.025C216.201 147.381 182.66 158.537 168.25 158.537C153.84 158.537 143.548 147.381 143.548 141.025C143.548 134.669 158.511 129.516 176.968 129.516Z" fill="url(#paint2_linear_20213_57575)"></path><g filter="url(#filter2_dd_20213_57575)"><path d="M200.21 107.331C200.21 126.002 170.549 145.896 165.998 163.652C161.428 145.896 131.786 126.002 131.786 107.331C131.786 88.6593 147.103 73.5232 165.998 73.5232C184.892 73.5232 200.21 88.6593 200.21 107.331Z" fill="white"></path><path d="M198.71 107.331C198.71 111.61 197.005 116.078 194.217 120.741C191.432 125.397 187.652 130.109 183.661 134.871C182.852 135.836 182.034 136.804 181.215 137.773C178.02 141.552 174.807 145.354 172.055 149.099C169.608 152.427 167.467 155.785 165.996 159.14C164.523 155.786 162.38 152.427 159.933 149.098C157.183 145.358 153.974 141.561 150.784 137.786C149.961 136.812 149.14 135.841 148.328 134.871C144.339 130.109 140.56 125.397 137.777 120.741C134.989 116.079 133.286 111.61 133.286 107.331C133.286 89.5045 147.915 75.0232 165.998 75.0232C184.081 75.0232 198.71 89.5045 198.71 107.331Z" stroke="white" stroke-width="3"></path></g><circle cx="165.553" cy="107.01" r="26.3246" stroke="#D2DCE4" stroke-width="2"></circle><mask id="mask2_20213_57575" style="mask-type:alpha" maskUnits="userSpaceOnUse" x="140" y="81" width="51" height="52"><circle cx="165.553" cy="107.01" r="25.3246" fill="#C4C4C4"></circle></mask><g mask="url(#mask2_20213_57575)"><mask id="mask3_20213_57575" style="mask-type:alpha" maskUnits="userSpaceOnUse" x="140" y="81" width="51" height="52"><circle cx="165.553" cy="106.874" r="25.3246" fill="#C4C4C4"></circle></mask><g mask="url(#mask3_20213_57575)"><path d="M150.78 75.2188H181.381V138.53H150.78V75.2188Z" fill="white"></path><path d="M139.173 68.8876H152.363L152.363 136.947H139.173L139.173 68.8876ZM178.743 68.8876H191.932L191.932 136.947H178.743L178.743 68.8876ZM156.307 106.237L155.283 106.594L160.049 110.856C160.41 111.951 159.924 112.274 159.615 112.849L164.789 112.179L164.654 117.485L165.726 117.454L165.492 112.192L170.672 112.818C170.351 112.128 170.066 111.762 170.363 110.659L175.126 106.621L174.292 106.313C173.611 105.778 174.587 103.733 174.734 102.442C174.734 102.442 171.953 103.417 171.77 102.907L171.062 101.52L168.532 104.352C168.256 104.42 168.138 104.308 168.073 104.07L169.242 98.1518L167.391 99.2125C167.236 99.2801 167.081 99.2218 166.979 99.0378L165.199 95.3979L163.363 99.178C163.224 99.3135 163.086 99.3292 162.971 99.2371L161.208 98.2297L162.266 104.102C162.182 104.335 161.981 104.4 161.744 104.274L159.325 101.474C159.009 101.991 158.794 102.835 158.376 103.024C157.958 103.201 156.557 102.666 155.618 102.457C155.939 103.636 156.942 105.595 156.307 106.237Z" fill="#BF0A30"></path></g></g><path opacity="0.298" d="M219.209 415.003C237.666 415.003 258.441 420.156 258.441 426.512C258.441 432.868 224.9 444.024 210.49 444.024C196.08 444.024 185.788 432.868 185.788 426.512C185.788 420.156 200.751 415.003 219.209 415.003Z" fill="url(#paint3_linear_20213_57575)"></path><g filter="url(#filter3_dd_20213_57575)"><path d="M242.45 392.818C242.45 411.489 212.789 431.384 208.238 449.139C203.668 431.384 174.026 411.489 174.026 392.818C174.026 374.147 189.343 359.01 208.238 359.01C227.133 359.01 242.45 374.147 242.45 392.818Z" fill="white"></path><path d="M240.95 392.818C240.95 397.097 239.246 401.565 236.457 406.228C233.672 410.884 229.892 415.596 225.901 420.359C225.092 421.323 224.275 422.291 223.456 423.26C220.261 427.04 217.047 430.841 214.295 434.586C211.849 437.914 209.707 441.273 208.236 444.627C206.763 441.273 204.62 437.914 202.173 434.586C199.423 430.845 196.215 427.048 193.024 423.273C192.202 422.3 191.38 421.328 190.568 420.359C186.579 415.597 182.8 410.885 180.017 406.229C177.229 401.566 175.526 397.097 175.526 392.818C175.526 374.992 190.155 360.51 208.238 360.51C226.321 360.51 240.95 374.992 240.95 392.818Z" stroke="white" stroke-width="3"></path></g><circle cx="207.791" cy="392.497" r="26.3246" stroke="#D2DCE4" stroke-width="2"></circle><mask id="mask4_20213_57575" style="mask-type:alpha" maskUnits="userSpaceOnUse" x="182" y="367" width="52" height="51"><circle cx="207.791" cy="392.497" r="25.3246" fill="#C4C4C4"></circle></mask><g mask="url(#mask4_20213_57575)"><g clip-path="url(#clip0_20213_57575)"><path d="M168.201 363.38H246.856V418.73H168.201V363.38Z" fill="#009B3A"></path><path d="M174.888 391.055L207.529 412.008L240.171 391.055L207.529 370.101L174.888 391.055Z" fill="#FEDF00"></path><path d="M207.528 404.892C215.13 404.892 221.293 398.697 221.293 391.055C221.293 383.413 215.13 377.217 207.528 377.217C199.926 377.217 193.764 383.413 193.764 391.055C193.764 398.697 199.926 404.892 207.528 404.892Z" fill="#002776"></path><path d="M166.235 418.729C166.235 409.817 169.757 401.269 176.026 394.967C182.295 388.665 190.798 385.124 199.664 385.124C208.529 385.124 217.032 388.665 223.301 394.967C229.57 401.269 233.092 409.817 233.092 418.729H231.125C231.125 410.341 227.811 402.296 221.91 396.365C216.01 390.433 208.008 387.101 199.664 387.101C191.319 387.101 183.317 390.433 177.417 396.365C171.516 402.296 168.202 410.341 168.202 418.729H166.235Z" fill="white"></path></g></g><path opacity="0.298" d="M290.287 84.0583C310.084 84.0583 332.368 89.5849 332.368 96.4024C332.368 103.22 296.392 115.187 280.935 115.187C265.479 115.187 254.439 103.22 254.439 96.4024C254.439 89.5849 270.489 84.0583 290.287 84.0583Z" fill="url(#paint4_linear_20213_57575)"></path><g filter="url(#filter4_dd_20213_57575)"><path d="M315.215 60.2621C315.215 80.2892 283.4 101.628 278.519 120.673C273.618 101.628 241.823 80.2892 241.823 60.2621C241.823 40.2351 258.252 24 278.519 24C298.785 24 315.215 40.2351 315.215 60.2621Z" fill="white"></path><path d="M313.715 60.2621C313.715 64.8802 311.876 69.693 308.88 74.7021C305.888 79.7043 301.828 84.7644 297.548 89.8723C296.68 90.908 295.802 91.9463 294.923 92.9859C291.497 97.0399 288.053 101.114 285.103 105.127C282.425 108.771 280.092 112.443 278.517 116.106C276.939 112.444 274.605 108.771 271.926 105.127C268.979 101.118 265.54 97.0494 262.118 93.0002C261.236 91.9558 260.354 90.9128 259.483 89.8725C255.203 84.7646 251.145 79.7046 248.155 74.7024C245.161 69.6934 243.323 64.8804 243.323 60.2621C243.323 41.0803 259.064 25.5 278.519 25.5C297.974 25.5 313.715 41.0803 313.715 60.2621Z" stroke="white" stroke-width="3"></path></g><circle cx="278.039" cy="59.9184" r="28.1633" stroke="#D2DCE4" stroke-width="2"></circle><mask id="mask5_20213_57575" style="mask-type:alpha" maskUnits="userSpaceOnUse" x="250" y="32" width="56" height="56"><circle cx="278.039" cy="59.9184" r="27.1633" fill="#C4C4C4"></circle></mask><g mask="url(#mask5_20213_57575)"><path d="M223.566 32.4635H332.511V86.936H223.566V32.4635Z" fill="#000066"></path><path d="M223.566 32.4635V38.5537L320.331 86.9362H332.511V80.8462L235.746 32.4635H223.566ZM332.511 32.4635V38.5536L235.746 86.936H223.566V80.8459L320.331 32.4635H332.511Z" fill="white"></path><path d="M268.96 32.4635V86.936H287.118V32.4635H268.96ZM223.566 50.621V68.7785H332.511V50.621H223.566Z" fill="white"></path><path d="M223.566 54.2525V65.147H332.511V54.2525H223.566ZM272.592 32.4635V86.936H283.486V32.4635H272.592ZM223.566 86.936L259.881 68.7785H268.001L231.686 86.936H223.566ZM223.566 32.4635L259.881 50.621H251.761L223.566 36.5237V32.4635ZM288.076 50.621L324.391 32.4635H332.511L296.196 50.621H288.076ZM332.511 86.936L296.196 68.7785H304.316L332.511 82.8759V86.936Z" fill="#CC0000"></path></g><circle cx="278.039" cy="60.2176" r="28.1633" stroke="#D2DCE4" stroke-width="2"></circle><mask id="mask6_20213_57575" style="mask-type:alpha" maskUnits="userSpaceOnUse" x="250" y="33" width="56" height="55"><circle cx="278.039" cy="60.2176" r="27.1633" fill="#C4C4C4"></circle></mask><g mask="url(#mask6_20213_57575)"><path d="M223.566 32.7627H332.511V87.2352H223.566V32.7627Z" fill="#000066"></path><path d="M223.566 32.7627V38.8529L320.331 87.2354H332.511V81.1454L235.746 32.7627H223.566ZM332.511 32.7627V38.8527L235.746 87.2352H223.566V81.1451L320.331 32.7627H332.511Z" fill="white"></path><path d="M268.96 32.7627V87.2352H287.118V32.7627H268.96ZM223.566 50.9202V69.0777H332.511V50.9202H223.566Z" fill="white"></path><path d="M223.566 54.5517V65.4462H332.511V54.5517H223.566ZM272.592 32.7627V87.2352H283.486V32.7627H272.592ZM223.566 87.2352L259.881 69.0777H268.001L231.686 87.2352H223.566ZM223.566 32.7627L259.881 50.9202H251.761L223.566 36.8229V32.7627ZM288.076 50.9202L324.391 32.7627H332.511L296.196 50.9202H288.076ZM332.511 87.2352L296.196 69.0777H304.316L332.511 83.1751V87.2352Z" fill="#CC0000"></path></g><path opacity="0.298" d="M86.4044 193.099C111.898 193.099 140.591 200.215 140.591 208.994C140.591 217.773 94.2655 233.182 74.363 233.182C54.4604 233.182 40.2451 217.773 40.2451 208.994C40.2451 200.215 60.9112 193.099 86.4044 193.099Z" fill="url(#paint5_linear_20213_57575)"></path><g filter="url(#filter5_dd_20213_57575)"><path d="M118.504 162.457C118.504 188.246 77.5377 215.723 71.2519 240.246C64.9406 215.723 24 188.246 24 162.457C24 136.669 45.1554 115.764 71.2519 115.764C97.3484 115.764 118.504 136.669 118.504 162.457Z" fill="white"></path><path d="M117.004 162.457C117.004 168.516 114.593 174.792 110.717 181.273C106.846 187.746 101.598 194.285 96.0854 200.863C94.9648 202.2 93.8326 203.539 92.6998 204.879C88.2886 210.098 83.8671 215.329 80.0782 220.484C76.4017 225.486 73.2508 230.506 71.25 235.488C69.2453 230.506 66.0924 225.486 62.4147 220.484C58.6294 215.335 54.2141 210.111 49.809 204.898C48.6713 203.551 47.5343 202.206 46.409 200.863C40.8982 194.285 35.6528 187.746 31.7831 181.273C27.9093 174.793 25.5 168.516 25.5 162.457C25.5 137.514 45.967 117.264 71.2519 117.264C96.5369 117.264 117.004 137.514 117.004 162.457Z" stroke="white" stroke-width="3"></path></g><circle cx="70.6375" cy="162.015" r="35.9773" stroke="#D2DCE4" stroke-width="2"></circle><mask id="mask7_20213_57575" style="mask-type:alpha" maskUnits="userSpaceOnUse" x="35" y="127" width="71" height="70"><circle cx="70.6375" cy="162.015" r="34.9773" fill="#C4C4C4"></circle></mask><g mask="url(#mask7_20213_57575)"><path fill-rule="evenodd" clip-rule="evenodd" d="M12.3447 126.662H145.26V132.043H12.3447V126.662ZM12.3447 137.424H145.26V142.805H12.3447V137.424ZM12.3447 148.186H145.26V153.568H12.3447V148.186ZM12.3447 158.949H145.26V164.33H12.3447V158.949ZM12.3447 169.711H145.26V175.092H12.3447V169.711ZM12.3447 180.474H145.26V185.855H12.3447V180.474ZM12.3447 191.236H145.26V196.617H12.3447V191.236Z" fill="#BD3D44"></path><path fill-rule="evenodd" clip-rule="evenodd" d="M12.3447 132.043H145.26V137.424H12.3447V132.043ZM12.3447 142.805H145.26V148.187H12.3447V142.805ZM12.3447 153.568H145.26V158.949H12.3447V153.568ZM12.3447 164.33H145.26V169.711H12.3447V164.33ZM12.3447 175.092H145.26V180.474H12.3447V175.092ZM12.3447 185.855H145.26V191.236H12.3447V185.855Z" fill="white"></path><path fill-rule="evenodd" clip-rule="evenodd" d="M12.3447 126.662H65.5103V164.329H12.3447V126.662Z" fill="#192F5D"></path><path fill-rule="evenodd" clip-rule="evenodd" d="M16.7777 128.274L17.2614 129.763H18.8269L17.5603 130.683L18.0441 132.171L16.7776 131.251L15.5113 132.171L15.9949 130.683L14.7285 129.763H16.2939L16.7777 128.274ZM25.6386 128.274L26.1224 129.763H27.6879L26.4213 130.683L26.9051 132.171L25.6386 131.251L24.3723 132.171L24.856 130.683L23.5895 129.763H25.1549L25.6386 128.274ZM34.4999 128.274L34.9835 129.763H36.549L35.2825 130.683L35.7663 132.171L34.4999 131.251L33.2334 132.171L33.7171 130.683L32.4507 129.763H34.0162L34.4999 128.274ZM43.3606 128.274L43.8443 129.763H45.4096L44.1432 130.683L44.6269 132.171L43.3606 131.251L42.094 132.171L42.5778 130.683L41.3113 129.763H42.8768L43.3606 128.274ZM52.2217 128.274L52.7054 129.763H54.2709L53.0044 130.683L53.4882 132.171L52.2216 131.251L50.9553 132.171L51.439 130.683L50.1726 129.763H51.7379L52.2217 128.274ZM61.0829 128.274L61.5666 129.763H63.1321L61.8655 130.683L62.3493 132.171L61.0829 131.251L59.8163 132.171L60.3003 130.683L59.0337 129.763H60.5992L61.0829 128.274ZM21.2083 132.041L21.692 133.529H23.2575L21.991 134.449L22.4749 135.938L21.2083 135.018L19.9419 135.938L20.4256 134.449L19.1592 133.529H20.7247L21.2083 132.041ZM30.0691 132.041L30.5527 133.529H32.1181L30.8517 134.449L31.3354 135.938L30.0691 135.018L28.8025 135.938L29.2863 134.449L28.0198 133.529H29.5853L30.0691 132.041ZM38.9302 132.041L39.4139 133.529H40.9794L39.7128 134.449L40.1967 135.938L38.9301 135.018L37.6638 135.938L38.1475 134.449L36.881 133.529H38.4464L38.9302 132.041ZM47.7914 132.041L48.2751 133.529H49.8406L48.574 134.449L49.0578 135.938L47.7914 135.018L46.5248 135.938L47.0089 134.449L45.7423 133.529H47.3078L47.7914 132.041ZM56.6521 132.041L57.1358 133.529H58.7012L57.4347 134.449L57.9184 135.938L56.6521 135.018L55.3856 135.938L55.8694 134.449L54.6028 133.529H56.1683L56.6521 132.041ZM16.7777 135.807L17.2614 137.296H18.8269L17.5603 138.216L18.0441 139.705L16.7776 138.785L15.5113 139.705L15.9949 138.216L14.7285 137.296H16.2939L16.7777 135.807ZM25.6386 135.807L26.1224 137.296H27.6879L26.4213 138.216L26.9051 139.705L25.6386 138.785L24.3723 139.705L24.856 138.216L23.5895 137.296H25.1549L25.6386 135.807ZM34.4999 135.807L34.9835 137.296H36.549L35.2825 138.216L35.7663 139.705L34.4999 138.785L33.2334 139.705L33.7171 138.216L32.4507 137.296H34.0162L34.4999 135.807ZM43.3606 135.807L43.8443 137.296H45.4096L44.1432 138.216L44.6269 139.705L43.3606 138.785L42.094 139.705L42.5778 138.216L41.3113 137.296H42.8768L43.3606 135.807ZM52.2217 135.807L52.7054 137.296H54.2709L53.0044 138.216L53.4882 139.705L52.2216 138.785L50.9553 139.705L51.439 138.216L50.1726 137.296H51.7379L52.2217 135.807ZM61.0829 135.807L61.5666 137.296H63.1321L61.8655 138.216L62.3493 139.705L61.0829 138.785L59.8163 139.705L60.3003 138.216L59.0337 137.296H60.5992L61.0829 135.807ZM21.2083 139.574L21.692 141.063H23.2575L21.991 141.983L22.4749 143.472L21.2083 142.552L19.9419 143.472L20.4256 141.983L19.1592 141.063H20.7247L21.2083 139.574ZM30.0691 139.574L30.5527 141.063H32.1181L30.8517 141.983L31.3354 143.472L30.0691 142.552L28.8025 143.472L29.2863 141.983L28.0198 141.063H29.5853L30.0691 139.574ZM38.9302 139.574L39.4139 141.063H40.9794L39.7128 141.983L40.1967 143.472L38.9301 142.552L37.6638 143.472L38.1475 141.983L36.881 141.063H38.4464L38.9302 139.574ZM47.7914 139.574L48.2751 141.063H49.8406L48.574 141.983L49.0578 143.472L47.7914 142.552L46.5248 143.472L47.0088 141.983L45.7422 141.063H47.3077L47.7914 139.574ZM56.6521 139.574L57.1358 141.063H58.7012L57.4347 141.983L57.9184 143.472L56.6521 142.552L55.3856 143.472L55.8694 141.983L54.6028 141.063H56.1683L56.6521 139.574ZM16.7777 143.341L17.2614 144.83H18.8269L17.5603 145.75L18.0441 147.239L16.7776 146.319L15.5113 147.239L15.9949 145.75L14.7285 144.83H16.2939L16.7777 143.341ZM25.6386 143.341L26.1224 144.83H27.6879L26.4213 145.75L26.9051 147.239L25.6386 146.319L24.3723 147.239L24.856 145.75L23.5895 144.83H25.1549L25.6386 143.341ZM34.4999 143.341L34.9835 144.83H36.549L35.2825 145.75L35.7663 147.239L34.4999 146.319L33.2334 147.239L33.7171 145.75L32.4507 144.83H34.0162L34.4999 143.341ZM43.3606 143.341L43.8443 144.83H45.4096L44.1432 145.75L44.6269 147.239L43.3606 146.319L42.094 147.239L42.5778 145.75L41.3113 144.83H42.8768L43.3606 143.341ZM52.2217 143.341L52.7054 144.83H54.2709L53.0044 145.75L53.4882 147.239L52.2216 146.319L50.9553 147.239L51.439 145.75L50.1726 144.83H51.7379L52.2217 143.341ZM61.0829 143.341L61.5666 144.83H63.1321L61.8655 145.75L62.3493 147.239L61.0829 146.319L59.8163 147.239L60.3003 145.75L59.0337 144.83H60.5992L61.0829 143.341ZM21.2083 147.108L21.692 148.597H23.2575L21.991 149.517L22.4749 151.006L21.2083 150.086L19.9419 151.006L20.4256 149.517L19.1592 148.597H20.7247L21.2083 147.108ZM30.0691 147.108L30.5527 148.597H32.1181L30.8517 149.517L31.3354 151.006L30.0691 150.086L28.8025 151.006L29.2863 149.517L28.0198 148.597H29.5853L30.0691 147.108ZM38.9302 147.108L39.4139 148.597H40.9794L39.7128 149.517L40.1967 151.006L38.9301 150.086L37.6638 151.006L38.1475 149.517L36.881 148.597H38.4464L38.9302 147.108ZM47.7914 147.108L48.2751 148.597H49.8406L48.574 149.517L49.0578 151.006L47.7914 150.086L46.5248 151.006L47.0088 149.517L45.7422 148.597H47.3077L47.7914 147.108ZM56.6521 147.108L57.1358 148.597H58.7012L57.4347 149.517L57.9184 151.006L56.6521 150.086L55.3856 151.006L55.8694 149.517L54.6028 148.597H56.1683L56.6521 147.108Z" fill="white"></path><path fill-rule="evenodd" clip-rule="evenodd" d="M16.7777 150.875L17.2614 152.363H18.8269L17.5603 153.284L18.0441 154.772L16.7776 153.852L15.5113 154.772L15.9949 153.284L14.7285 152.363H16.2939L16.7777 150.875ZM25.6386 150.875L26.1224 152.363H27.6879L26.4213 153.284L26.9051 154.772L25.6386 153.852L24.3723 154.772L24.856 153.284L23.5895 152.363H25.1549L25.6386 150.875ZM34.4999 150.875L34.9835 152.363H36.549L35.2825 153.284L35.7663 154.772L34.4999 153.852L33.2334 154.772L33.7171 153.284L32.4507 152.363H34.0162L34.4999 150.875ZM43.3606 150.875L43.8443 152.363H45.4096L44.1432 153.284L44.6269 154.772L43.3606 153.852L42.094 154.772L42.5778 153.284L41.3113 152.363H42.8768L43.3606 150.875ZM52.2217 150.875L52.7054 152.363H54.2709L53.0044 153.284L53.4882 154.772L52.2216 153.852L50.9553 154.772L51.439 153.284L50.1726 152.363H51.7379L52.2217 150.875ZM61.0829 150.875L61.5666 152.363H63.1321L61.8655 153.284L62.3493 154.772L61.0829 153.852L59.8163 154.772L60.3003 153.284L59.0337 152.363H60.5992L61.0829 150.875ZM21.2083 154.642L21.692 156.13H23.2575L21.991 157.05L22.4749 158.539L21.2083 157.619L19.9419 158.539L20.4256 157.05L19.1592 156.13H20.7247L21.2083 154.642ZM30.0691 154.642L30.5527 156.13H32.1181L30.8517 157.05L31.3354 158.539L30.0691 157.619L28.8025 158.539L29.2863 157.05L28.0198 156.13H29.5853L30.0691 154.642ZM38.9302 154.642L39.4139 156.13H40.9794L39.7128 157.05L40.1967 158.539L38.9301 157.619L37.6638 158.539L38.1475 157.05L36.881 156.13H38.4464L38.9302 154.642ZM47.7914 154.642L48.2751 156.13H49.8406L48.574 157.05L49.0578 158.539L47.7914 157.619L46.5248 158.539L47.0088 157.05L45.7422 156.13H47.3077L47.7914 154.642ZM56.6521 154.642L57.1358 156.13H58.7012L57.4347 157.05L57.9184 158.539L56.6521 157.619L55.3856 158.539L55.8694 157.05L54.6028 156.13H56.1683L56.6521 154.642Z" fill="white"></path><path fill-rule="evenodd" clip-rule="evenodd" d="M16.7777 158.408L17.2614 159.897H18.8269L17.5603 160.817L18.0441 162.306L16.7776 161.386L15.5113 162.306L15.9949 160.817L14.7285 159.897H16.2939L16.7777 158.408ZM25.6386 158.408L26.1224 159.897H27.6879L26.4213 160.817L26.9051 162.306L25.6386 161.386L24.3723 162.306L24.856 160.817L23.5895 159.897H25.1549L25.6386 158.408ZM34.4999 158.408L34.9835 159.897H36.549L35.2825 160.817L35.7663 162.306L34.4999 161.386L33.2334 162.306L33.7171 160.817L32.4507 159.897H34.0162L34.4999 158.408ZM43.3606 158.408L43.8443 159.897H45.4096L44.1432 160.817L44.6269 162.306L43.3606 161.386L42.094 162.306L42.5778 160.817L41.3113 159.897H42.8768L43.3606 158.408ZM52.2217 158.408L52.7054 159.897H54.2709L53.0044 160.817L53.4882 162.306L52.2216 161.386L50.9553 162.306L51.439 160.817L50.1726 159.897H51.7379L52.2217 158.408ZM61.0829 158.408L61.5666 159.897H63.1321L61.8655 160.817L62.3493 162.306L61.0829 161.386L59.8163 162.306L60.3003 160.817L59.0337 159.897H60.5992L61.0829 158.408Z" fill="white"></path></g><path opacity="0.298" d="M493.846 186.742C510.521 186.742 529.29 191.397 529.29 197.139C529.29 202.881 498.988 212.961 485.969 212.961C472.951 212.961 463.652 202.881 463.652 197.139C463.652 191.397 477.17 186.742 493.846 186.742Z" fill="url(#paint6_linear_20213_57575)"></path><g filter="url(#filter6_dd_20213_57575)"><path d="M514.843 166.699C514.843 183.567 488.046 201.541 483.935 217.582C479.806 201.541 453.026 183.567 453.026 166.699C453.026 149.83 466.864 136.156 483.935 136.156C501.005 136.156 514.843 149.83 514.843 166.699Z" fill="white"></path><path d="M513.343 166.699C513.343 170.527 511.818 174.537 509.304 178.74C506.795 182.936 503.386 187.185 499.781 191.487C499.051 192.358 498.313 193.231 497.574 194.106C494.687 197.521 491.78 200.96 489.29 204.348C487.15 207.259 485.263 210.203 483.933 213.149C482.601 210.203 480.713 207.259 478.572 204.348C476.085 200.964 473.181 197.529 470.299 194.118C469.556 193.239 468.815 192.362 468.082 191.487C464.478 187.185 461.071 182.936 458.563 178.74C456.051 174.538 454.526 170.527 454.526 166.699C454.526 150.675 467.676 137.656 483.935 137.656C500.193 137.656 513.343 150.675 513.343 166.699Z" stroke="white" stroke-width="3"></path></g><circle cx="483.53" cy="166.409" r="23.8793" stroke="#D2DCE4" stroke-width="2"></circle><mask id="mask8_20213_57575" style="mask-type:alpha" maskUnits="userSpaceOnUse" x="460" y="143" width="47" height="47"><circle cx="483.53" cy="166.409" r="22.8793" fill="#C4C4C4"></circle></mask><g mask="url(#mask8_20213_57575)"><path fill-rule="evenodd" clip-rule="evenodd" d="M448.448 143.653H517.086V189.411H448.448V143.653Z" fill="white"></path><path d="M482.767 177.972C489.085 177.972 494.206 172.85 494.206 166.532C494.206 160.214 489.085 155.093 482.767 155.093C476.449 155.093 471.327 160.214 471.327 166.532C471.327 172.85 476.449 177.972 482.767 177.972Z" fill="#D30000"></path></g><path opacity="0.298" d="M458.008 279.095C479.679 279.095 504.071 285.145 504.071 292.608C504.071 300.07 464.69 313.169 447.772 313.169C430.853 313.169 418.769 300.07 418.769 292.608C418.769 285.145 436.336 279.095 458.008 279.095Z" fill="url(#paint7_linear_20213_57575)"></path><g filter="url(#filter7_dd_20213_57575)"><path d="M485.295 253.047C485.295 274.969 450.471 298.328 445.127 319.175C439.762 298.328 404.959 274.969 404.959 253.047C404.959 231.125 422.943 213.354 445.127 213.354C467.311 213.354 485.295 231.125 485.295 253.047Z" fill="white"></path><path d="M483.795 253.047C483.795 258.139 481.768 263.434 478.483 268.927C475.202 274.413 470.751 279.959 466.065 285.551C465.114 286.685 464.153 287.823 463.191 288.961C459.44 293.399 455.675 297.853 452.449 302.242C449.444 306.33 446.843 310.443 445.125 314.538C443.405 310.443 440.802 306.33 437.796 302.242C434.573 297.858 430.813 293.409 427.068 288.977C426.101 287.833 425.136 286.691 424.181 285.551C419.496 279.959 415.048 274.413 411.768 268.927C408.485 263.434 406.459 258.139 406.459 253.047C406.459 231.97 423.754 214.854 445.127 214.854C466.5 214.854 483.795 231.97 483.795 253.047Z" stroke="white" stroke-width="3"></path></g><circle cx="444.606" cy="252.671" r="30.7337" stroke="#D2DCE4" stroke-width="2"></circle><mask id="mask9_20213_57575" style="mask-type:alpha" maskUnits="userSpaceOnUse" x="414" y="222" width="61" height="61"><circle cx="444.606" cy="252.671" r="29.7337" fill="#C4C4C4"></circle></mask><g mask="url(#mask9_20213_57575)"><g filter="url(#filter8_dd_20213_57575)"><path d="M494.163 222.938H414.873V282.405H494.163V222.938Z" fill="#EE1C25"></path><path d="M429.74 228.884L434.943 244.99L421.191 235.079H438.164L424.413 244.99L429.74 228.884Z" fill="#FFFF00"></path><path d="M445.721 226.159L445.225 231.734L442.376 226.902L447.579 229.132L442.128 230.371L445.721 226.159Z" fill="#FFFF00"></path><path d="M452.66 232.725L450.058 237.681L449.315 232.105L453.279 236.194L447.704 235.203L452.66 232.725Z" fill="#FFFF00"></path><path d="M453.401 242.76L448.941 246.229L450.552 240.778L452.534 246.105L447.826 243.008L453.401 242.76Z" fill="#FFFF00"></path><path d="M445.597 246.972L445.349 252.671L442.252 247.963L447.579 249.946L442.128 251.308L445.597 246.972Z" fill="#FFFF00"></path></g></g><path opacity="0.298" d="M267.789 161.685C281.966 161.685 297.924 165.643 297.924 170.525C297.924 175.407 272.161 183.977 261.092 183.977C250.024 183.977 242.118 175.407 242.118 170.525C242.118 165.643 253.611 161.685 267.789 161.685Z" fill="url(#paint8_linear_20213_57575)"></path><g filter="url(#filter9_dd_20213_57575)"><path d="M285.641 144.645C285.641 158.986 262.858 174.267 259.362 187.906C255.852 174.267 233.084 158.986 233.084 144.645C233.084 130.303 244.849 118.677 259.362 118.677C273.875 118.677 285.641 130.303 285.641 144.645Z" fill="white"></path><path d="M284.141 144.645C284.141 147.841 282.866 151.21 280.739 154.767C278.616 158.317 275.728 161.918 272.663 165.575C272.044 166.314 271.417 167.055 270.789 167.798C268.335 170.702 265.856 173.634 263.734 176.521C262.018 178.856 260.486 181.224 259.361 183.602C258.234 181.224 256.701 178.856 254.984 176.521C252.864 173.637 250.39 170.709 247.938 167.808C247.307 167.062 246.678 166.317 246.057 165.576C242.993 161.918 240.106 158.317 237.984 154.767C235.857 151.21 234.584 147.842 234.584 144.645C234.584 131.148 245.661 120.177 259.362 120.177C273.064 120.177 284.141 131.148 284.141 144.645Z" stroke="white" stroke-width="3"></path></g><circle cx="259.021" cy="144.399" r="20.452" stroke="#D2DCE4" stroke-width="2"></circle><mask id="mask10_20213_57575" style="mask-type:alpha" maskUnits="userSpaceOnUse" x="239" y="124" width="40" height="40"><circle cx="259.021" cy="144.399" r="19.452" fill="#C4C4C4"></circle></mask><g mask="url(#mask10_20213_57575)"><mask id="mask11_20213_57575" style="mask-type:alpha" maskUnits="userSpaceOnUse" x="239" y="124" width="40" height="40"><circle cx="258.965" cy="144.399" r="19.452" fill="#C4C4C4"></circle></mask><g mask="url(#mask11_20213_57575)"><path fill-rule="evenodd" clip-rule="evenodd" d="M233.03 124.947H284.902V163.851H233.03V124.947Z" fill="white"></path><path fill-rule="evenodd" clip-rule="evenodd" d="M233.03 124.947H250.321V163.851H233.03V124.947Z" fill="#00267F"></path><path fill-rule="evenodd" clip-rule="evenodd" d="M267.611 124.947H284.902V163.851H267.611V124.947Z" fill="#F31830"></path></g></g><path opacity="0.298" d="M286.795 344.641C308.466 344.641 332.858 350.69 332.858 358.153C332.858 365.616 293.478 378.715 276.559 378.715C259.64 378.715 247.556 365.616 247.556 358.153C247.556 350.69 265.124 344.641 286.795 344.641Z" fill="url(#paint9_linear_20213_57575)"></path><g filter="url(#filter10_dd_20213_57575)"><path d="M314.082 318.593C314.082 340.515 279.258 363.873 273.914 384.72C268.549 363.873 233.746 340.515 233.746 318.593C233.746 296.671 251.73 278.899 273.914 278.899C296.098 278.899 314.082 296.671 314.082 318.593Z" fill="white"></path><path d="M312.582 318.593C312.582 323.685 310.556 328.979 307.27 334.472C303.989 339.958 299.538 345.505 294.852 351.096C293.901 352.231 292.94 353.368 291.978 354.507C288.227 358.944 284.462 363.399 281.236 367.787C278.231 371.875 275.63 375.989 273.912 380.084C272.192 375.989 269.589 371.875 266.583 367.787C263.36 363.404 259.6 358.954 255.855 354.522C254.889 353.379 253.923 352.236 252.968 351.096C248.284 345.505 243.835 339.958 240.555 334.472C237.272 328.979 235.246 323.685 235.246 318.593C235.246 297.516 252.542 280.399 273.914 280.399C295.287 280.399 312.582 297.516 312.582 318.593Z" stroke="white" stroke-width="3"></path></g><circle cx="273.39" cy="318.216" r="30.7337" stroke="#D2DCE4" stroke-width="2"></circle><mask id="mask12_20213_57575" style="mask-type:alpha" maskUnits="userSpaceOnUse" x="243" y="288" width="61" height="60"><circle cx="273.39" cy="318.216" r="29.7337" fill="#C4C4C4"></circle></mask><g mask="url(#mask12_20213_57575)"><path fill-rule="evenodd" clip-rule="evenodd" d="M233.744 286.828H315.229V347.941H233.744V286.828Z" fill="white"></path><path fill-rule="evenodd" clip-rule="evenodd" d="M233.744 286.828H260.905V347.941H233.744V286.828Z" fill="#009246"></path><path fill-rule="evenodd" clip-rule="evenodd" d="M288.067 286.828H315.229V347.941H288.067V286.828Z" fill="#CE2B37"></path><path d="M233.748 327.906H315.232V348.278H233.748V327.906Z" fill="#FFCE00"></path><path d="M233.748 287.165H315.232V307.535H233.748V287.165Z" fill="black"></path><path d="M233.748 307.535H315.232V327.906H233.748V307.535Z" fill="#DD0000"></path></g><path opacity="0.298" d="M128.029 334.445C149.701 334.445 174.092 340.494 174.092 347.957C174.092 355.42 134.712 368.519 117.793 368.519C100.874 368.519 88.79 355.42 88.79 347.957C88.79 340.494 106.358 334.445 128.029 334.445Z" fill="url(#paint10_linear_20213_57575)"></path><g filter="url(#filter11_dd_20213_57575)"><path d="M155.317 308.397C155.317 330.319 120.492 353.677 115.149 374.524C109.783 353.677 74.9805 330.319 74.9805 308.397C74.9805 286.475 92.9643 268.703 115.149 268.703C137.333 268.703 155.317 286.475 155.317 308.397Z" fill="white"></path><path d="M153.817 308.397C153.817 313.489 151.79 318.783 148.505 324.276C145.223 329.762 140.773 335.309 136.087 340.9C135.136 342.035 134.174 343.172 133.212 344.311C129.462 348.748 125.696 353.203 122.471 357.591C119.466 361.679 116.864 365.793 115.147 369.888C113.426 365.793 110.823 361.679 107.817 357.591C104.595 353.208 100.835 348.759 97.0894 344.327C96.1229 343.183 95.1574 342.04 94.2024 340.9C89.5179 335.309 85.0693 329.763 81.7898 324.276C78.5061 318.783 76.4805 313.489 76.4805 308.397C76.4805 287.32 93.7759 270.203 115.149 270.203C136.521 270.203 153.817 287.32 153.817 308.397Z" stroke="white" stroke-width="3"></path></g><circle cx="114.624" cy="308.021" r="30.7337" stroke="#D2DCE4" stroke-width="2"></circle><mask id="mask13_20213_57575" style="mask-type:alpha" maskUnits="userSpaceOnUse" x="84" y="278" width="61" height="60"><circle cx="114.624" cy="308.021" r="29.7337" fill="#C4C4C4"></circle></mask><g mask="url(#mask13_20213_57575)"><path d="M54.998 277.968H174.252V337.595H54.998V277.968Z" fill="#000066"></path><path d="M54.998 277.968V284.635L160.92 337.595H174.252V330.929L68.3306 277.968H54.998ZM174.252 277.968V284.634L68.3306 337.595H54.998V330.929L160.92 277.968H174.252Z" fill="white"></path><path d="M104.687 277.968V337.595H124.563V277.968H104.687ZM54.998 297.844V317.72H174.252V297.844H54.998Z" fill="white"></path><path d="M54.998 301.819V313.744H174.252V301.819H54.998ZM108.663 277.968V337.595H120.588V277.968H108.663ZM54.998 337.595L94.7495 317.72H103.638L63.8865 337.595H54.998ZM54.998 277.968L94.7495 297.844H85.861L54.998 282.413V277.968ZM125.612 297.844L165.364 277.968H174.252L134.501 297.844H125.612ZM174.252 337.595L134.501 317.72H143.389L174.252 333.151V337.595Z" fill="#CC0000"></path></g><circle cx="114.624" cy="308.348" r="30.7337" stroke="#D2DCE4" stroke-width="2"></circle><mask id="mask14_20213_57575" style="mask-type:alpha" maskUnits="userSpaceOnUse" x="84" y="278" width="61" height="61"><circle cx="114.624" cy="308.348" r="29.7337" fill="#C4C4C4"></circle></mask><g mask="url(#mask14_20213_57575)"><path fill-rule="evenodd" clip-rule="evenodd" d="M148.324 347.993H78.9453V268.703H148.324V347.993Z" fill="white"></path><path fill-rule="evenodd" clip-rule="evenodd" d="M113.636 308.348C113.636 314.506 108.921 319.498 103.105 319.498C97.2889 319.498 92.5742 314.506 92.5742 308.348C92.5742 302.19 97.289 297.198 103.105 297.198C108.921 297.198 113.636 302.19 113.636 308.348Z" fill="white"></path><path fill-rule="evenodd" clip-rule="evenodd" d="M127.264 308.968C127.264 316.836 121.162 323.215 113.636 323.215C106.109 323.215 100.008 316.837 100.008 308.968C100.008 301.099 106.109 294.72 113.636 294.72C121.163 294.72 127.264 301.099 127.264 308.968H127.264Z" fill="#C70000"></path><path fill-rule="evenodd" clip-rule="evenodd" d="M85.1396 296L93.0589 287.287L94.9352 288.83L87.0159 297.543L85.1396 296ZM87.7332 298.133L95.6525 289.42L97.5287 290.963L89.6094 299.676L87.7332 298.133Z" fill="black"></path><path fill-rule="evenodd" clip-rule="evenodd" d="M85.1396 295.707L93.1525 287.287L95.0509 288.778L87.0381 297.198L85.1396 295.707Z" fill="black"></path><path fill-rule="evenodd" clip-rule="evenodd" d="M85.1396 296.179L93.6212 287.287L95.6306 288.861L87.1491 297.754L85.1396 296.179ZM90.7545 300.579L99.236 291.687L101.245 293.261L92.7639 302.154L90.7545 300.579Z" fill="black"></path><path fill-rule="evenodd" clip-rule="evenodd" d="M85.1396 295.707L93.1525 287.287L95.0509 288.778L87.0381 297.198L85.1396 295.707Z" fill="black"></path><path fill-rule="evenodd" clip-rule="evenodd" d="M85.1396 296.179L93.1956 287.29L95.1042 288.864L87.0483 297.753L85.1396 296.179ZM134.137 287.287L142.129 296.228L140.209 297.79L132.217 288.849L134.137 287.287ZM128.773 291.651L136.765 300.592L134.845 302.154L126.853 293.212L128.773 291.651Z" fill="black"></path><path fill-rule="evenodd" clip-rule="evenodd" d="M129.74 297.033L137.051 289.765L138.413 291.582L130.6 299.676L129.74 297.033V297.033Z" fill="white"></path><path fill-rule="evenodd" clip-rule="evenodd" d="M139.521 319.236L131.818 328.466L129.93 326.886L137.632 317.657L139.521 319.236ZM131.631 288.526L139.581 297.9L137.671 299.537L129.721 290.163L131.631 288.526ZM142.131 321.419L134.428 330.648L132.54 329.069L140.242 319.84L142.131 321.419ZM136.854 317.006L129.152 326.235L127.264 324.656L134.966 315.427L136.854 317.006Z" fill="black"></path><path fill-rule="evenodd" clip-rule="evenodd" d="M100.188 306.925C100.62 310.415 101.251 314.304 106.603 314.708C108.61 314.828 112.513 314.229 113.853 308.743C115.611 303.473 120.906 301.958 124.509 304.815C126.552 306.152 127.117 308.276 127.264 309.871C127.1 314.991 124.171 319.423 120.413 321.4C116.093 323.977 110.107 324.03 104.863 320.126C102.5 317.901 99.1984 313.8 100.188 306.924V306.925Z" fill="#3D5897"></path><path fill-rule="evenodd" clip-rule="evenodd" d="M131.982 319.499L139.651 325.44L138.23 326.932L129.74 320.623L131.982 319.499Z" fill="white"></path><path fill-rule="evenodd" clip-rule="evenodd" d="M89.5377 318.26L97.5294 327.752L95.6098 329.41L87.6182 319.917L89.5377 318.26Z" fill="black"></path><path fill-rule="evenodd" clip-rule="evenodd" d="M88.8574 325.858L96.168 319.499L97.5297 321.088L89.7175 328.171L88.8574 325.858V325.858Z" fill="white"></path><path fill-rule="evenodd" clip-rule="evenodd" d="M92.8189 315.782L101.245 324.723L99.2214 326.285L90.795 317.343L92.8189 315.782ZM87.1637 320.145L95.5901 329.087L93.5662 330.648L85.1396 321.707L87.1637 320.145Z" fill="black"></path></g><defs><filter id="filter0_dd_20213_57575" x="255.738" y="112.584" width="142.717" height="169.592" filterUnits="userSpaceOnUse" color-interpolation-filters="sRGB"><feFlood flood-opacity="0" result="BackgroundImageFix"></feFlood><feColorMatrix in="SourceAlpha" type="matrix" values="0 0 0 0 0 0 0 0 0 0 0 0 0 0 0 0 0 0 127 0" result="hardAlpha"></feColorMatrix><feOffset dx="5" dy="5"></feOffset><feGaussianBlur stdDeviation="14.5"></feGaussianBlur><feColorMatrix type="matrix" values="0 0 0 0 0 0 0 0 0 0.296699 0 0 0 0 0.858629 0 0 0 0.14 0"></feColorMatrix><feBlend mode="normal" in2="BackgroundImageFix" result="effect1_dropShadow_20213_57575"></feBlend><feColorMatrix in="SourceAlpha" type="matrix" values="0 0 0 0 0 0 0 0 0 0 0 0 0 0 0 0 0 0 127 0" result="hardAlpha"></feColorMatrix><feOffset></feOffset><feGaussianBlur stdDeviation="3.5"></feGaussianBlur><feComposite in2="hardAlpha" operator="out"></feComposite><feColorMatrix type="matrix" values="0 0 0 0 0.0354167 0 0 0 0 0.105426 0 0 0 0 0.2125 0 0 0 0.09 0"></feColorMatrix><feBlend mode="normal" in2="effect1_dropShadow_20213_57575" result="effect2_dropShadow_20213_57575"></feBlend><feBlend mode="normal" in="SourceGraphic" in2="effect2_dropShadow_20213_57575" result="shape"></feBlend></filter><filter id="filter1_dd_20213_57575" x="296.478" y="304.422" width="126.762" height="148.574" filterUnits="userSpaceOnUse" color-interpolation-filters="sRGB"><feFlood flood-opacity="0" result="BackgroundImageFix"></feFlood><feColorMatrix in="SourceAlpha" type="matrix" values="0 0 0 0 0 0 0 0 0 0 0 0 0 0 0 0 0 0 127 0" result="hardAlpha"></feColorMatrix><feOffset dx="5" dy="5"></feOffset><feGaussianBlur stdDeviation="14.5"></feGaussianBlur><feColorMatrix type="matrix" values="0 0 0 0 0 0 0 0 0 0.296699 0 0 0 0 0.858629 0 0 0 0.14 0"></feColorMatrix><feBlend mode="normal" in2="BackgroundImageFix" result="effect1_dropShadow_20213_57575"></feBlend><feColorMatrix in="SourceAlpha" type="matrix" values="0 0 0 0 0 0 0 0 0 0 0 0 0 0 0 0 0 0 127 0" result="hardAlpha"></feColorMatrix><feOffset></feOffset><feGaussianBlur stdDeviation="3.5"></feGaussianBlur><feComposite in2="hardAlpha" operator="out"></feComposite><feColorMatrix type="matrix" values="0 0 0 0 0.0354167 0 0 0 0 0.105426 0 0 0 0 0.2125 0 0 0 0.09 0"></feColorMatrix><feBlend mode="normal" in2="effect1_dropShadow_20213_57575" result="effect2_dropShadow_20213_57575"></feBlend><feBlend mode="normal" in="SourceGraphic" in2="effect2_dropShadow_20213_57575" result="shape"></feBlend></filter><filter id="filter2_dd_20213_57575" x="107.786" y="49.5232" width="126.424" height="148.129" filterUnits="userSpaceOnUse" color-interpolation-filters="sRGB"><feFlood flood-opacity="0" result="BackgroundImageFix"></feFlood><feColorMatrix in="SourceAlpha" type="matrix" values="0 0 0 0 0 0 0 0 0 0 0 0 0 0 0 0 0 0 127 0" result="hardAlpha"></feColorMatrix><feOffset dx="5" dy="5"></feOffset><feGaussianBlur stdDeviation="14.5"></feGaussianBlur><feColorMatrix type="matrix" values="0 0 0 0 0 0 0 0 0 0.296699 0 0 0 0 0.858629 0 0 0 0.14 0"></feColorMatrix><feBlend mode="normal" in2="BackgroundImageFix" result="effect1_dropShadow_20213_57575"></feBlend><feColorMatrix in="SourceAlpha" type="matrix" values="0 0 0 0 0 0 0 0 0 0 0 0 0 0 0 0 0 0 127 0" result="hardAlpha"></feColorMatrix><feOffset></feOffset><feGaussianBlur stdDeviation="3.5"></feGaussianBlur><feComposite in2="hardAlpha" operator="out"></feComposite><feColorMatrix type="matrix" values="0 0 0 0 0.0354167 0 0 0 0 0.105426 0 0 0 0 0.2125 0 0 0 0.09 0"></feColorMatrix><feBlend mode="normal" in2="effect1_dropShadow_20213_57575" result="effect2_dropShadow_20213_57575"></feBlend><feBlend mode="normal" in="SourceGraphic" in2="effect2_dropShadow_20213_57575" result="shape"></feBlend></filter><filter id="filter3_dd_20213_57575" x="150.026" y="335.01" width="126.424" height="148.129" filterUnits="userSpaceOnUse" color-interpolation-filters="sRGB"><feFlood flood-opacity="0" result="BackgroundImageFix"></feFlood><feColorMatrix in="SourceAlpha" type="matrix" values="0 0 0 0 0 0 0 0 0 0 0 0 0 0 0 0 0 0 127 0" result="hardAlpha"></feColorMatrix><feOffset dx="5" dy="5"></feOffset><feGaussianBlur stdDeviation="14.5"></feGaussianBlur><feColorMatrix type="matrix" values="0 0 0 0 0 0 0 0 0 0.296699 0 0 0 0 0.858629 0 0 0 0.14 0"></feColorMatrix><feBlend mode="normal" in2="BackgroundImageFix" result="effect1_dropShadow_20213_57575"></feBlend><feColorMatrix in="SourceAlpha" type="matrix" values="0 0 0 0 0 0 0 0 0 0 0 0 0 0 0 0 0 0 127 0" result="hardAlpha"></feColorMatrix><feOffset></feOffset><feGaussianBlur stdDeviation="3.5"></feGaussianBlur><feComposite in2="hardAlpha" operator="out"></feComposite><feColorMatrix type="matrix" values="0 0 0 0 0.0354167 0 0 0 0 0.105426 0 0 0 0 0.2125 0 0 0 0.09 0"></feColorMatrix><feBlend mode="normal" in2="effect1_dropShadow_20213_57575" result="effect2_dropShadow_20213_57575"></feBlend><feBlend mode="normal" in="SourceGraphic" in2="effect2_dropShadow_20213_57575" result="shape"></feBlend></filter><filter id="filter4_dd_20213_57575" x="217.823" y="0" width="131.392" height="154.673" filterUnits="userSpaceOnUse" color-interpolation-filters="sRGB"><feFlood flood-opacity="0" result="BackgroundImageFix"></feFlood><feColorMatrix in="SourceAlpha" type="matrix" values="0 0 0 0 0 0 0 0 0 0 0 0 0 0 0 0 0 0 127 0" result="hardAlpha"></feColorMatrix><feOffset dx="5" dy="5"></feOffset><feGaussianBlur stdDeviation="14.5"></feGaussianBlur><feColorMatrix type="matrix" values="0 0 0 0 0 0 0 0 0 0.296699 0 0 0 0 0.858629 0 0 0 0.14 0"></feColorMatrix><feBlend mode="normal" in2="BackgroundImageFix" result="effect1_dropShadow_20213_57575"></feBlend><feColorMatrix in="SourceAlpha" type="matrix" values="0 0 0 0 0 0 0 0 0 0 0 0 0 0 0 0 0 0 127 0" result="hardAlpha"></feColorMatrix><feOffset></feOffset><feGaussianBlur stdDeviation="3.5"></feGaussianBlur><feComposite in2="hardAlpha" operator="out"></feComposite><feColorMatrix type="matrix" values="0 0 0 0 0.0354167 0 0 0 0 0.105426 0 0 0 0 0.2125 0 0 0 0.09 0"></feColorMatrix><feBlend mode="normal" in2="effect1_dropShadow_20213_57575" result="effect2_dropShadow_20213_57575"></feBlend><feBlend mode="normal" in="SourceGraphic" in2="effect2_dropShadow_20213_57575" result="shape"></feBlend></filter><filter id="filter5_dd_20213_57575" x="0" y="91.7637" width="152.504" height="182.483" filterUnits="userSpaceOnUse" color-interpolation-filters="sRGB"><feFlood flood-opacity="0" result="BackgroundImageFix"></feFlood><feColorMatrix in="SourceAlpha" type="matrix" values="0 0 0 0 0 0 0 0 0 0 0 0 0 0 0 0 0 0 127 0" result="hardAlpha"></feColorMatrix><feOffset dx="5" dy="5"></feOffset><feGaussianBlur stdDeviation="14.5"></feGaussianBlur><feColorMatrix type="matrix" values="0 0 0 0 0 0 0 0 0 0.296699 0 0 0 0 0.858629 0 0 0 0.14 0"></feColorMatrix><feBlend mode="normal" in2="BackgroundImageFix" result="effect1_dropShadow_20213_57575"></feBlend><feColorMatrix in="SourceAlpha" type="matrix" values="0 0 0 0 0 0 0 0 0 0 0 0 0 0 0 0 0 0 127 0" result="hardAlpha"></feColorMatrix><feOffset></feOffset><feGaussianBlur stdDeviation="3.5"></feGaussianBlur><feComposite in2="hardAlpha" operator="out"></feComposite><feColorMatrix type="matrix" values="0 0 0 0 0.0354167 0 0 0 0 0.105426 0 0 0 0 0.2125 0 0 0 0.09 0"></feColorMatrix><feBlend mode="normal" in2="effect1_dropShadow_20213_57575" result="effect2_dropShadow_20213_57575"></feBlend><feBlend mode="normal" in="SourceGraphic" in2="effect2_dropShadow_20213_57575" result="shape"></feBlend></filter><filter id="filter6_dd_20213_57575" x="429.026" y="112.156" width="119.816" height="139.426" filterUnits="userSpaceOnUse" color-interpolation-filters="sRGB"><feFlood flood-opacity="0" result="BackgroundImageFix"></feFlood><feColorMatrix in="SourceAlpha" type="matrix" values="0 0 0 0 0 0 0 0 0 0 0 0 0 0 0 0 0 0 127 0" result="hardAlpha"></feColorMatrix><feOffset dx="5" dy="5"></feOffset><feGaussianBlur stdDeviation="14.5"></feGaussianBlur><feColorMatrix type="matrix" values="0 0 0 0 0 0 0 0 0 0.296699 0 0 0 0 0.858629 0 0 0 0.14 0"></feColorMatrix><feBlend mode="normal" in2="BackgroundImageFix" result="effect1_dropShadow_20213_57575"></feBlend><feColorMatrix in="SourceAlpha" type="matrix" values="0 0 0 0 0 0 0 0 0 0 0 0 0 0 0 0 0 0 127 0" result="hardAlpha"></feColorMatrix><feOffset></feOffset><feGaussianBlur stdDeviation="3.5"></feGaussianBlur><feComposite in2="hardAlpha" operator="out"></feComposite><feColorMatrix type="matrix" values="0 0 0 0 0.0354167 0 0 0 0 0.105426 0 0 0 0 0.2125 0 0 0 0.09 0"></feColorMatrix><feBlend mode="normal" in2="effect1_dropShadow_20213_57575" result="effect2_dropShadow_20213_57575"></feBlend><feBlend mode="normal" in="SourceGraphic" in2="effect2_dropShadow_20213_57575" result="shape"></feBlend></filter><filter id="filter7_dd_20213_57575" x="380.959" y="189.354" width="138.336" height="163.821" filterUnits="userSpaceOnUse" color-interpolation-filters="sRGB"><feFlood flood-opacity="0" result="BackgroundImageFix"></feFlood><feColorMatrix in="SourceAlpha" type="matrix" values="0 0 0 0 0 0 0 0 0 0 0 0 0 0 0 0 0 0 127 0" result="hardAlpha"></feColorMatrix><feOffset dx="5" dy="5"></feOffset><feGaussianBlur stdDeviation="14.5"></feGaussianBlur><feColorMatrix type="matrix" values="0 0 0 0 0 0 0 0 0 0.296699 0 0 0 0 0.858629 0 0 0 0.14 0"></feColorMatrix><feBlend mode="normal" in2="BackgroundImageFix" result="effect1_dropShadow_20213_57575"></feBlend><feColorMatrix in="SourceAlpha" type="matrix" values="0 0 0 0 0 0 0 0 0 0 0 0 0 0 0 0 0 0 127 0" result="hardAlpha"></feColorMatrix><feOffset></feOffset><feGaussianBlur stdDeviation="3.5"></feGaussianBlur><feComposite in2="hardAlpha" operator="out"></feComposite><feColorMatrix type="matrix" values="0 0 0 0 0.0354167 0 0 0 0 0.105426 0 0 0 0 0.2125 0 0 0 0.09 0"></feColorMatrix><feBlend mode="normal" in2="effect1_dropShadow_20213_57575" result="effect2_dropShadow_20213_57575"></feBlend><feBlend mode="normal" in="SourceGraphic" in2="effect2_dropShadow_20213_57575" result="shape"></feBlend></filter><filter id="filter8_dd_20213_57575" x="402.873" y="212.938" width="103.29" height="83.4674" filterUnits="userSpaceOnUse" color-interpolation-filters="sRGB"><feFlood flood-opacity="0" result="BackgroundImageFix"></feFlood><feColorMatrix in="SourceAlpha" type="matrix" values="0 0 0 0 0 0 0 0 0 0 0 0 0 0 0 0 0 0 127 0" result="hardAlpha"></feColorMatrix><feOffset dy="4"></feOffset><feGaussianBlur stdDeviation="5"></feGaussianBlur><feColorMatrix type="matrix" values="0 0 0 0 0.607843 0 0 0 0 0.67451 0 0 0 0 0.737255 0 0 0 0.35 0"></feColorMatrix><feBlend mode="normal" in2="BackgroundImageFix" result="effect1_dropShadow_20213_57575"></feBlend><feColorMatrix in="SourceAlpha" type="matrix" values="0 0 0 0 0 0 0 0 0 0 0 0 0 0 0 0 0 0 127 0" result="hardAlpha"></feColorMatrix><feOffset dy="2"></feOffset><feGaussianBlur stdDeviation="6"></feGaussianBlur><feColorMatrix type="matrix" values="0 0 0 0 0.89625 0 0 0 0 0.930414 0 0 0 0 0.995833 0 0 0 1 0"></feColorMatrix><feBlend mode="normal" in2="effect1_dropShadow_20213_57575" result="effect2_dropShadow_20213_57575"></feBlend><feBlend mode="normal" in="SourceGraphic" in2="effect2_dropShadow_20213_57575" result="shape"></feBlend></filter><filter id="filter9_dd_20213_57575" x="209.084" y="94.6768" width="110.557" height="127.229" filterUnits="userSpaceOnUse" color-interpolation-filters="sRGB"><feFlood flood-opacity="0" result="BackgroundImageFix"></feFlood><feColorMatrix in="SourceAlpha" type="matrix" values="0 0 0 0 0 0 0 0 0 0 0 0 0 0 0 0 0 0 127 0" result="hardAlpha"></feColorMatrix><feOffset dx="5" dy="5"></feOffset><feGaussianBlur stdDeviation="14.5"></feGaussianBlur><feColorMatrix type="matrix" values="0 0 0 0 0 0 0 0 0 0.296699 0 0 0 0 0.858629 0 0 0 0.14 0"></feColorMatrix><feBlend mode="normal" in2="BackgroundImageFix" result="effect1_dropShadow_20213_57575"></feBlend><feColorMatrix in="SourceAlpha" type="matrix" values="0 0 0 0 0 0 0 0 0 0 0 0 0 0 0 0 0 0 127 0" result="hardAlpha"></feColorMatrix><feOffset></feOffset><feGaussianBlur stdDeviation="3.5"></feGaussianBlur><feComposite in2="hardAlpha" operator="out"></feComposite><feColorMatrix type="matrix" values="0 0 0 0 0.0354167 0 0 0 0 0.105426 0 0 0 0 0.2125 0 0 0 0.09 0"></feColorMatrix><feBlend mode="normal" in2="effect1_dropShadow_20213_57575" result="effect2_dropShadow_20213_57575"></feBlend><feBlend mode="normal" in="SourceGraphic" in2="effect2_dropShadow_20213_57575" result="shape"></feBlend></filter><filter id="filter10_dd_20213_57575" x="209.746" y="254.899" width="138.336" height="163.821" filterUnits="userSpaceOnUse" color-interpolation-filters="sRGB"><feFlood flood-opacity="0" result="BackgroundImageFix"></feFlood><feColorMatrix in="SourceAlpha" type="matrix" values="0 0 0 0 0 0 0 0 0 0 0 0 0 0 0 0 0 0 127 0" result="hardAlpha"></feColorMatrix><feOffset dx="5" dy="5"></feOffset><feGaussianBlur stdDeviation="14.5"></feGaussianBlur><feColorMatrix type="matrix" values="0 0 0 0 0 0 0 0 0 0.296699 0 0 0 0 0.858629 0 0 0 0.14 0"></feColorMatrix><feBlend mode="normal" in2="BackgroundImageFix" result="effect1_dropShadow_20213_57575"></feBlend><feColorMatrix in="SourceAlpha" type="matrix" values="0 0 0 0 0 0 0 0 0 0 0 0 0 0 0 0 0 0 127 0" result="hardAlpha"></feColorMatrix><feOffset></feOffset><feGaussianBlur stdDeviation="3.5"></feGaussianBlur><feComposite in2="hardAlpha" operator="out"></feComposite><feColorMatrix type="matrix" values="0 0 0 0 0.0354167 0 0 0 0 0.105426 0 0 0 0 0.2125 0 0 0 0.09 0"></feColorMatrix><feBlend mode="normal" in2="effect1_dropShadow_20213_57575" result="effect2_dropShadow_20213_57575"></feBlend><feBlend mode="normal" in="SourceGraphic" in2="effect2_dropShadow_20213_57575" result="shape"></feBlend></filter><filter id="filter11_dd_20213_57575" x="50.9805" y="244.703" width="138.336" height="163.821" filterUnits="userSpaceOnUse" color-interpolation-filters="sRGB"><feFlood flood-opacity="0" result="BackgroundImageFix"></feFlood><feColorMatrix in="SourceAlpha" type="matrix" values="0 0 0 0 0 0 0 0 0 0 0 0 0 0 0 0 0 0 127 0" result="hardAlpha"></feColorMatrix><feOffset dx="5" dy="5"></feOffset><feGaussianBlur stdDeviation="14.5"></feGaussianBlur><feColorMatrix type="matrix" values="0 0 0 0 0 0 0 0 0 0.296699 0 0 0 0 0.858629 0 0 0 0.14 0"></feColorMatrix><feBlend mode="normal" in2="BackgroundImageFix" result="effect1_dropShadow_20213_57575"></feBlend><feColorMatrix in="SourceAlpha" type="matrix" values="0 0 0 0 0 0 0 0 0 0 0 0 0 0 0 0 0 0 127 0" result="hardAlpha"></feColorMatrix><feOffset></feOffset><feGaussianBlur stdDeviation="3.5"></feGaussianBlur><feComposite in2="hardAlpha" operator="out"></feComposite><feColorMatrix type="matrix" values="0 0 0 0 0.0354167 0 0 0 0 0.105426 0 0 0 0 0.2125 0 0 0 0.09 0"></feColorMatrix><feBlend mode="normal" in2="effect1_dropShadow_20213_57575" result="effect2_dropShadow_20213_57575"></feBlend><feBlend mode="normal" in="SourceGraphic" in2="effect2_dropShadow_20213_57575" result="shape"></feBlend></filter><linearGradient id="paint0_linear_20213_57575" x1="384.255" y1="241.842" x2="384.255" y2="205.91" gradientUnits="userSpaceOnUse"><stop stop-color="#004D74" stop-opacity="0.22"></stop><stop offset="1" stop-color="#004D74" stop-opacity="0"></stop></linearGradient><linearGradient id="paint1_linear_20213_57575" x1="405.31" y1="413.856" x2="405.31" y2="384.692" gradientUnits="userSpaceOnUse"><stop stop-color="#004D74" stop-opacity="0.22"></stop><stop offset="1" stop-color="#004D74" stop-opacity="0"></stop></linearGradient><linearGradient id="paint2_linear_20213_57575" x1="216.201" y1="158.537" x2="216.201" y2="129.516" gradientUnits="userSpaceOnUse"><stop stop-color="#004D74" stop-opacity="0.22"></stop><stop offset="1" stop-color="#004D74" stop-opacity="0"></stop></linearGradient><linearGradient id="paint3_linear_20213_57575" x1="258.441" y1="444.024" x2="258.441" y2="415.003" gradientUnits="userSpaceOnUse"><stop stop-color="#004D74" stop-opacity="0.22"></stop><stop offset="1" stop-color="#004D74" stop-opacity="0"></stop></linearGradient><linearGradient id="paint4_linear_20213_57575" x1="332.368" y1="115.187" x2="332.368" y2="84.0583" gradientUnits="userSpaceOnUse"><stop stop-color="#004D74" stop-opacity="0.22"></stop><stop offset="1" stop-color="#004D74" stop-opacity="0"></stop></linearGradient><linearGradient id="paint5_linear_20213_57575" x1="140.591" y1="233.182" x2="140.591" y2="193.099" gradientUnits="userSpaceOnUse"><stop stop-color="#004D74" stop-opacity="0.22"></stop><stop offset="1" stop-color="#004D74" stop-opacity="0"></stop></linearGradient><linearGradient id="paint6_linear_20213_57575" x1="529.29" y1="212.961" x2="529.29" y2="186.742" gradientUnits="userSpaceOnUse"><stop stop-color="#004D74" stop-opacity="0.22"></stop><stop offset="1" stop-color="#004D74" stop-opacity="0"></stop></linearGradient><linearGradient id="paint7_linear_20213_57575" x1="504.071" y1="313.169" x2="504.071" y2="279.095" gradientUnits="userSpaceOnUse"><stop stop-color="#004D74" stop-opacity="0.22"></stop><stop offset="1" stop-color="#004D74" stop-opacity="0"></stop></linearGradient><linearGradient id="paint8_linear_20213_57575" x1="297.924" y1="183.977" x2="297.924" y2="161.685" gradientUnits="userSpaceOnUse"><stop stop-color="#004D74" stop-opacity="0.22"></stop><stop offset="1" stop-color="#004D74" stop-opacity="0"></stop></linearGradient><linearGradient id="paint9_linear_20213_57575" x1="332.858" y1="378.715" x2="332.858" y2="344.641" gradientUnits="userSpaceOnUse"><stop stop-color="#004D74" stop-opacity="0.22"></stop><stop offset="1" stop-color="#004D74" stop-opacity="0"></stop></linearGradient><linearGradient id="paint10_linear_20213_57575" x1="174.092" y1="368.519" x2="174.092" y2="334.445" gradientUnits="userSpaceOnUse"><stop stop-color="#004D74" stop-opacity="0.22"></stop><stop offset="1" stop-color="#004D74" stop-opacity="0"></stop></linearGradient><clipPath id="clip0_20213_57575"><rect width="78.6546" height="55.3496" fill="white" transform="translate(168.201 363.38)"></rect></clipPath></defs></svg>